<?xml version="1.0" encoding="UTF-8"?>
<svg enable-background="new 0 0 200 200" version="1.1" viewBox="0 0 200 200" xml:space="preserve" xmlns="http://www.w3.org/2000/svg">
<style type="text/css">
	.st0{fill:url(#circle70_00000177468721607303748030000015380839826925384601_);}
	.st1{fill:#FFFFFF;stroke:#014C46;stroke-width:1.1331;stroke-miterlimit:10;}
	.st2{fill:url(#polygon102_00000178200583963262591950000014712108070207794359_);}
	.st3{fill:#FFFFFF;stroke:#014C46;stroke-width:1.625;stroke-miterlimit:10;}
	.st4{fill:#1D1D1B;stroke:#FFFFFF;stroke-width:2.6008;stroke-linecap:round;stroke-miterlimit:10;}
	.st5{fill:none;stroke:#FFFFFF;stroke-width:2.6008;stroke-linecap:round;stroke-miterlimit:10;}
	.st6{fill:#FFFFFF;}
	.st7{fill:#014C46;}
</style><path d="m104.56 10h-59.561c-5.54 0-10 4.46-10 10v160c0 5.54 4.46 10 10 10h110c5.54 0 10-4.46 10-10v-110.09l-60.439-59.906z" fill="#cc33c3" fill-opacity=".99602"/><path d="m165 69.906-60.439-59.906v49.906c0 5.54 4.46 10 10 10z" fill="#bfbfbf" fill-opacity=".99602"/><path d="m45.766 167.11v-6.1562q3.5 2.2812 7.4062 3.2188 3.9062 0.90625 6.625 0.90625 4.4062 0 6.3438-1.4062 1.9375-1.4375 1.9375-3.5625 0-1.4062-0.90625-2.4062t-4.5-2.4688l-2-0.8125-4.0312-1.5938q-6.5-2.5312-8.1875-4.6875-1.7188-2.125-1.7188-5.1875 0-4.3125 3.3125-7.0938 3.3438-2.7812 10.812-2.7812 5.5938 0 10.594 1.625v5.2812q-5.75-2.0625-10.812-2.0625-3.6875 0-5.7812 1.3125-2.0625 1.2812-2.0625 3.2188 0 1.875 1.8125 3 1.7812 1.125 5.8125 2.5938l3.9375 1.4375q5.4062 1.9688 7.5938 4.2812t2.1875 5.7812q0 4.5312-3.5 7.4688-3.4688 2.9062-11.125 2.9062-6.6875 0-13.75-2.8125zm38 1.8438v-50.438h5.8125v23.156q2.5-4.0312 6.0312-6.3125t7.0625-2.2812q2.9688 0 5.4062 1.5312 2.4688 1.5 3.4375 3.6562 0.78125 1.6562 1.0625 3.5312 0.28125 1.8438 0.28125 7.6562v19.5h-5.8125v-20.219q0-5.0312-0.5-6.625-0.46875-1.625-1.7812-2.6562-1.2812-1.0312-2.8125-1.0312-3.0625 0-6.5938 2.9062-3.5 2.9062-5.7812 7.2812v20.344zm43.781-27.062q2.6875-4.375 6.4062-6.5938t6.8438-2.2188q4.375 0 7.875 3.7812t3.5 11.469q0 6.0625-2.3438 10.844-2.3125 4.75-6.1875 7.5312-3.875 2.75-9.5938 2.75-1.625 0-5-0.34375-0.5-0.0625-1.5-0.15625v13.562h-5.8125v-48.469h5.8125zm0 6.9062v14.969q3.1562 0.8125 5.8125 0.8125 5.2812 0 8.875-4.125 3.625-4.1562 3.625-11.344 0-5.2188-1.9688-7.8438t-4.4688-2.625q-2.7188 0-6 2.75-3.25 2.75-5.875 7.4062z" fill="#fff" fill-opacity=".99602" stroke-linejoin="round" style="paint-order:markers fill stroke" aria-label="shp"/></svg>
